<mxfile host="Electron" modified="2023-09-05T14:52:15.377Z" agent="Mozilla/5.0 (X11; Linux x86_64) AppleWebKit/537.36 (KHTML, like Gecko) draw.io/21.6.8 Chrome/114.0.5735.289 Electron/25.5.0 Safari/537.36" etag="3d_JxZ_l1bC8bowfGNjK" version="21.6.8" type="device">
  <diagram name="第 1 页" id="g2rS3xQUismOoGKR6sjP">
    <mxGraphModel dx="579" dy="579" grid="1" gridSize="10" guides="1" tooltips="1" connect="1" arrows="1" fold="1" page="1" pageScale="1" pageWidth="827" pageHeight="1169" math="0" shadow="0">
      <root>
        <mxCell id="0" />
        <mxCell id="1" parent="0" />
        <mxCell id="UNmL30TtIV6XZN5u6PYp-3" style="edgeStyle=orthogonalEdgeStyle;rounded=0;orthogonalLoop=1;jettySize=auto;html=1;entryX=0.5;entryY=0;entryDx=0;entryDy=0;entryPerimeter=0;" edge="1" parent="1" source="UNmL30TtIV6XZN5u6PYp-1" target="UNmL30TtIV6XZN5u6PYp-2">
          <mxGeometry relative="1" as="geometry" />
        </mxCell>
        <mxCell id="UNmL30TtIV6XZN5u6PYp-1" value="trans_sys_of_nodes" style="strokeWidth=2;html=1;shape=mxgraph.flowchart.start_1;whiteSpace=wrap;" vertex="1" parent="1">
          <mxGeometry x="210" y="80" width="130" height="60" as="geometry" />
        </mxCell>
        <mxCell id="UNmL30TtIV6XZN5u6PYp-11" value="" style="edgeStyle=orthogonalEdgeStyle;rounded=0;orthogonalLoop=1;jettySize=auto;html=1;" edge="1" parent="1" source="UNmL30TtIV6XZN5u6PYp-2" target="UNmL30TtIV6XZN5u6PYp-10">
          <mxGeometry relative="1" as="geometry" />
        </mxCell>
        <mxCell id="UNmL30TtIV6XZN5u6PYp-12" value="no" style="edgeLabel;html=1;align=center;verticalAlign=middle;resizable=0;points=[];" vertex="1" connectable="0" parent="UNmL30TtIV6XZN5u6PYp-11">
          <mxGeometry x="-0.2182" y="-2" relative="1" as="geometry">
            <mxPoint as="offset" />
          </mxGeometry>
        </mxCell>
        <mxCell id="UNmL30TtIV6XZN5u6PYp-56" style="edgeStyle=orthogonalEdgeStyle;rounded=0;orthogonalLoop=1;jettySize=auto;html=1;entryX=0;entryY=0.5;entryDx=0;entryDy=0;entryPerimeter=0;" edge="1" parent="1" source="UNmL30TtIV6XZN5u6PYp-2" target="UNmL30TtIV6XZN5u6PYp-53">
          <mxGeometry relative="1" as="geometry" />
        </mxCell>
        <mxCell id="UNmL30TtIV6XZN5u6PYp-57" value="yes" style="edgeLabel;html=1;align=center;verticalAlign=middle;resizable=0;points=[];" vertex="1" connectable="0" parent="UNmL30TtIV6XZN5u6PYp-56">
          <mxGeometry x="-0.0489" y="-1" relative="1" as="geometry">
            <mxPoint x="1" as="offset" />
          </mxGeometry>
        </mxCell>
        <mxCell id="UNmL30TtIV6XZN5u6PYp-2" value="analysis.&lt;br&gt;param_scope_is_abstract" style="strokeWidth=2;html=1;shape=mxgraph.flowchart.decision;whiteSpace=wrap;" vertex="1" parent="1">
          <mxGeometry x="192.5" y="220" width="165" height="120" as="geometry" />
        </mxCell>
        <mxCell id="UNmL30TtIV6XZN5u6PYp-4" value="判断顶层节点是不是抽象的" style="text;html=1;strokeColor=none;fillColor=none;align=center;verticalAlign=middle;whiteSpace=wrap;rounded=0;" vertex="1" parent="1">
          <mxGeometry x="140" y="220" width="90" height="30" as="geometry" />
        </mxCell>
        <mxCell id="UNmL30TtIV6XZN5u6PYp-15" value="" style="edgeStyle=orthogonalEdgeStyle;rounded=0;orthogonalLoop=1;jettySize=auto;html=1;" edge="1" parent="1" source="UNmL30TtIV6XZN5u6PYp-10" target="UNmL30TtIV6XZN5u6PYp-14">
          <mxGeometry relative="1" as="geometry" />
        </mxCell>
        <mxCell id="UNmL30TtIV6XZN5u6PYp-10" value="SubSystem.&lt;br&gt;find_subsystem_of_list&amp;nbsp;" style="whiteSpace=wrap;html=1;strokeWidth=2;" vertex="1" parent="1">
          <mxGeometry x="207.5" y="450" width="135" height="60" as="geometry" />
        </mxCell>
        <mxCell id="UNmL30TtIV6XZN5u6PYp-13" value="找到顶层系统的子系统" style="text;html=1;strokeColor=none;fillColor=none;align=center;verticalAlign=middle;whiteSpace=wrap;rounded=0;" vertex="1" parent="1">
          <mxGeometry x="100" y="460" width="80" height="30" as="geometry" />
        </mxCell>
        <mxCell id="UNmL30TtIV6XZN5u6PYp-18" value="" style="edgeStyle=orthogonalEdgeStyle;rounded=0;orthogonalLoop=1;jettySize=auto;html=1;" edge="1" parent="1" source="UNmL30TtIV6XZN5u6PYp-14" target="UNmL30TtIV6XZN5u6PYp-17">
          <mxGeometry relative="1" as="geometry" />
        </mxCell>
        <mxCell id="UNmL30TtIV6XZN5u6PYp-14" value="lustreSlicing.&lt;br&gt;slice_to_abstraction" style="whiteSpace=wrap;html=1;strokeWidth=2;" vertex="1" parent="1">
          <mxGeometry x="215" y="590" width="120" height="60" as="geometry" />
        </mxCell>
        <mxCell id="UNmL30TtIV6XZN5u6PYp-16" value="将节点切分为抽象或实现" style="text;html=1;strokeColor=none;fillColor=none;align=center;verticalAlign=middle;whiteSpace=wrap;rounded=0;" vertex="1" parent="1">
          <mxGeometry x="112.5" y="600" width="80" height="30" as="geometry" />
        </mxCell>
        <mxCell id="UNmL30TtIV6XZN5u6PYp-21" value="" style="edgeStyle=orthogonalEdgeStyle;rounded=0;orthogonalLoop=1;jettySize=auto;html=1;" edge="1" parent="1" source="UNmL30TtIV6XZN5u6PYp-17" target="UNmL30TtIV6XZN5u6PYp-20">
          <mxGeometry relative="1" as="geometry" />
        </mxCell>
        <mxCell id="UNmL30TtIV6XZN5u6PYp-17" value="lustreNode.&lt;br&gt;nodes_of_subsystem" style="whiteSpace=wrap;html=1;strokeWidth=2;" vertex="1" parent="1">
          <mxGeometry x="215" y="730" width="120" height="60" as="geometry" />
        </mxCell>
        <mxCell id="UNmL30TtIV6XZN5u6PYp-19" value="返回子系统中按拓扑顺序排序的节点列表。&lt;br&gt;列表的首个节点是顶级节点。" style="text;html=1;strokeColor=none;fillColor=none;align=center;verticalAlign=middle;whiteSpace=wrap;rounded=0;" vertex="1" parent="1">
          <mxGeometry x="57.5" y="750" width="150" height="30" as="geometry" />
        </mxCell>
        <mxCell id="UNmL30TtIV6XZN5u6PYp-23" value="" style="edgeStyle=orthogonalEdgeStyle;rounded=0;orthogonalLoop=1;jettySize=auto;html=1;" edge="1" parent="1" source="UNmL30TtIV6XZN5u6PYp-20" target="UNmL30TtIV6XZN5u6PYp-22">
          <mxGeometry relative="1" as="geometry" />
        </mxCell>
        <mxCell id="UNmL30TtIV6XZN5u6PYp-20" value="trans_sys_of_node" style="whiteSpace=wrap;html=1;strokeWidth=2;" vertex="1" parent="1">
          <mxGeometry x="215" y="860" width="120" height="60" as="geometry" />
        </mxCell>
        <mxCell id="UNmL30TtIV6XZN5u6PYp-25" value="" style="edgeStyle=orthogonalEdgeStyle;rounded=0;orthogonalLoop=1;jettySize=auto;html=1;" edge="1" parent="1" source="UNmL30TtIV6XZN5u6PYp-22" target="UNmL30TtIV6XZN5u6PYp-26">
          <mxGeometry relative="1" as="geometry">
            <mxPoint x="275" y="1160" as="targetPoint" />
          </mxGeometry>
        </mxCell>
        <mxCell id="UNmL30TtIV6XZN5u6PYp-29" value="analysis.&lt;br&gt;Refinement" style="edgeLabel;html=1;align=center;verticalAlign=middle;resizable=0;points=[];" vertex="1" connectable="0" parent="UNmL30TtIV6XZN5u6PYp-25">
          <mxGeometry x="-0.1111" y="4" relative="1" as="geometry">
            <mxPoint as="offset" />
          </mxGeometry>
        </mxCell>
        <mxCell id="UNmL30TtIV6XZN5u6PYp-28" value="" style="edgeStyle=orthogonalEdgeStyle;rounded=0;orthogonalLoop=1;jettySize=auto;html=1;" edge="1" parent="1" source="UNmL30TtIV6XZN5u6PYp-22" target="UNmL30TtIV6XZN5u6PYp-52">
          <mxGeometry relative="1" as="geometry">
            <mxPoint x="460" y="1030" as="targetPoint" />
          </mxGeometry>
        </mxCell>
        <mxCell id="UNmL30TtIV6XZN5u6PYp-51" value="其他" style="edgeLabel;html=1;align=center;verticalAlign=middle;resizable=0;points=[];" vertex="1" connectable="0" parent="UNmL30TtIV6XZN5u6PYp-28">
          <mxGeometry x="0.0792" y="2" relative="1" as="geometry">
            <mxPoint x="1" as="offset" />
          </mxGeometry>
        </mxCell>
        <mxCell id="UNmL30TtIV6XZN5u6PYp-22" value="analysis_param" style="rhombus;whiteSpace=wrap;html=1;strokeWidth=2;" vertex="1" parent="1">
          <mxGeometry x="222.5" y="990" width="105" height="80" as="geometry" />
        </mxCell>
        <mxCell id="UNmL30TtIV6XZN5u6PYp-32" value="" style="edgeStyle=orthogonalEdgeStyle;rounded=0;orthogonalLoop=1;jettySize=auto;html=1;entryX=0;entryY=0.5;entryDx=0;entryDy=0;entryPerimeter=0;" edge="1" parent="1" source="UNmL30TtIV6XZN5u6PYp-26" target="UNmL30TtIV6XZN5u6PYp-47">
          <mxGeometry relative="1" as="geometry">
            <mxPoint x="80" y="1370" as="targetPoint" />
            <Array as="points">
              <mxPoint x="80" y="1225" />
              <mxPoint x="80" y="1740" />
            </Array>
          </mxGeometry>
        </mxCell>
        <mxCell id="UNmL30TtIV6XZN5u6PYp-33" value="property.PropUnknown" style="edgeLabel;html=1;align=center;verticalAlign=middle;resizable=0;points=[];" vertex="1" connectable="0" parent="UNmL30TtIV6XZN5u6PYp-32">
          <mxGeometry x="0.2068" y="-1" relative="1" as="geometry">
            <mxPoint as="offset" />
          </mxGeometry>
        </mxCell>
        <mxCell id="UNmL30TtIV6XZN5u6PYp-35" value="" style="edgeStyle=orthogonalEdgeStyle;rounded=0;orthogonalLoop=1;jettySize=auto;html=1;" edge="1" parent="1" source="UNmL30TtIV6XZN5u6PYp-26" target="UNmL30TtIV6XZN5u6PYp-34">
          <mxGeometry relative="1" as="geometry" />
        </mxCell>
        <mxCell id="UNmL30TtIV6XZN5u6PYp-36" value="property.PropInvariant" style="edgeLabel;html=1;align=center;verticalAlign=middle;resizable=0;points=[];" vertex="1" connectable="0" parent="UNmL30TtIV6XZN5u6PYp-35">
          <mxGeometry x="0.0667" y="1" relative="1" as="geometry">
            <mxPoint as="offset" />
          </mxGeometry>
        </mxCell>
        <mxCell id="UNmL30TtIV6XZN5u6PYp-40" value="" style="edgeStyle=orthogonalEdgeStyle;rounded=0;orthogonalLoop=1;jettySize=auto;html=1;" edge="1" parent="1" source="UNmL30TtIV6XZN5u6PYp-26" target="UNmL30TtIV6XZN5u6PYp-39">
          <mxGeometry relative="1" as="geometry" />
        </mxCell>
        <mxCell id="UNmL30TtIV6XZN5u6PYp-41" value="property.PropKTrue" style="edgeLabel;html=1;align=center;verticalAlign=middle;resizable=0;points=[];" vertex="1" connectable="0" parent="UNmL30TtIV6XZN5u6PYp-40">
          <mxGeometry x="0.4176" y="2" relative="1" as="geometry">
            <mxPoint as="offset" />
          </mxGeometry>
        </mxCell>
        <mxCell id="UNmL30TtIV6XZN5u6PYp-42" style="edgeStyle=orthogonalEdgeStyle;rounded=0;orthogonalLoop=1;jettySize=auto;html=1;exitX=1;exitY=0.5;exitDx=0;exitDy=0;entryX=0.5;entryY=0;entryDx=0;entryDy=0;" edge="1" parent="1" source="UNmL30TtIV6XZN5u6PYp-26" target="UNmL30TtIV6XZN5u6PYp-44">
          <mxGeometry relative="1" as="geometry">
            <mxPoint x="430" y="1370" as="targetPoint" />
          </mxGeometry>
        </mxCell>
        <mxCell id="UNmL30TtIV6XZN5u6PYp-43" value="property.PropFalse" style="edgeLabel;html=1;align=center;verticalAlign=middle;resizable=0;points=[];" vertex="1" connectable="0" parent="UNmL30TtIV6XZN5u6PYp-42">
          <mxGeometry x="0.1391" y="-1" relative="1" as="geometry">
            <mxPoint y="1" as="offset" />
          </mxGeometry>
        </mxCell>
        <mxCell id="UNmL30TtIV6XZN5u6PYp-26" value="TransSys.&lt;br&gt;get_prop_status_all_nocands" style="rhombus;whiteSpace=wrap;html=1;" vertex="1" parent="1">
          <mxGeometry x="140" y="1180" width="265" height="90" as="geometry" />
        </mxCell>
        <mxCell id="UNmL30TtIV6XZN5u6PYp-30" value="获取了细化分析结果中的属性状态列表" style="text;html=1;strokeColor=none;fillColor=none;align=center;verticalAlign=middle;whiteSpace=wrap;rounded=0;" vertex="1" parent="1">
          <mxGeometry x="92.5" y="1169" width="120" height="30" as="geometry" />
        </mxCell>
        <mxCell id="UNmL30TtIV6XZN5u6PYp-38" value="" style="edgeStyle=orthogonalEdgeStyle;rounded=0;orthogonalLoop=1;jettySize=auto;html=1;" edge="1" parent="1" source="UNmL30TtIV6XZN5u6PYp-34" target="UNmL30TtIV6XZN5u6PYp-37">
          <mxGeometry relative="1" as="geometry" />
        </mxCell>
        <mxCell id="UNmL30TtIV6XZN5u6PYp-34" value="TransSys.&lt;br&gt;set_prop_invariant" style="whiteSpace=wrap;html=1;" vertex="1" parent="1">
          <mxGeometry x="212.5" y="1390" width="120" height="60" as="geometry" />
        </mxCell>
        <mxCell id="UNmL30TtIV6XZN5u6PYp-48" style="edgeStyle=orthogonalEdgeStyle;rounded=0;orthogonalLoop=1;jettySize=auto;html=1;" edge="1" parent="1" source="UNmL30TtIV6XZN5u6PYp-37" target="UNmL30TtIV6XZN5u6PYp-47">
          <mxGeometry relative="1" as="geometry" />
        </mxCell>
        <mxCell id="UNmL30TtIV6XZN5u6PYp-37" value="TransSys.&lt;br&gt;add_invariant" style="whiteSpace=wrap;html=1;" vertex="1" parent="1">
          <mxGeometry x="212.5" y="1530" width="120" height="60" as="geometry" />
        </mxCell>
        <mxCell id="UNmL30TtIV6XZN5u6PYp-50" style="edgeStyle=orthogonalEdgeStyle;rounded=0;orthogonalLoop=1;jettySize=auto;html=1;entryX=1;entryY=0.5;entryDx=0;entryDy=0;entryPerimeter=0;" edge="1" parent="1" source="UNmL30TtIV6XZN5u6PYp-39" target="UNmL30TtIV6XZN5u6PYp-47">
          <mxGeometry relative="1" as="geometry">
            <Array as="points">
              <mxPoint x="580" y="1740" />
            </Array>
          </mxGeometry>
        </mxCell>
        <mxCell id="UNmL30TtIV6XZN5u6PYp-39" value="TransSys.&lt;br&gt;set_prop_invariant" style="whiteSpace=wrap;html=1;" vertex="1" parent="1">
          <mxGeometry x="520" y="1390" width="120" height="60" as="geometry" />
        </mxCell>
        <mxCell id="UNmL30TtIV6XZN5u6PYp-49" style="edgeStyle=orthogonalEdgeStyle;rounded=0;orthogonalLoop=1;jettySize=auto;html=1;entryX=1;entryY=0.5;entryDx=0;entryDy=0;entryPerimeter=0;" edge="1" parent="1" source="UNmL30TtIV6XZN5u6PYp-44" target="UNmL30TtIV6XZN5u6PYp-47">
          <mxGeometry relative="1" as="geometry">
            <Array as="points">
              <mxPoint x="430" y="1740" />
            </Array>
          </mxGeometry>
        </mxCell>
        <mxCell id="UNmL30TtIV6XZN5u6PYp-44" value="TransSys.&lt;br&gt;set_prop_status" style="rounded=0;whiteSpace=wrap;html=1;" vertex="1" parent="1">
          <mxGeometry x="370" y="1390" width="120" height="60" as="geometry" />
        </mxCell>
        <mxCell id="UNmL30TtIV6XZN5u6PYp-47" value="exit" style="strokeWidth=2;html=1;shape=mxgraph.flowchart.start_1;whiteSpace=wrap;" vertex="1" parent="1">
          <mxGeometry x="222.5" y="1710" width="100" height="60" as="geometry" />
        </mxCell>
        <mxCell id="UNmL30TtIV6XZN5u6PYp-52" value="exit" style="strokeWidth=2;html=1;shape=mxgraph.flowchart.start_1;whiteSpace=wrap;" vertex="1" parent="1">
          <mxGeometry x="414" y="1000" width="100" height="60" as="geometry" />
        </mxCell>
        <mxCell id="UNmL30TtIV6XZN5u6PYp-53" value="抛出异常" style="strokeWidth=2;html=1;shape=mxgraph.flowchart.start_1;whiteSpace=wrap;" vertex="1" parent="1">
          <mxGeometry x="440" y="256" width="80" height="48" as="geometry" />
        </mxCell>
      </root>
    </mxGraphModel>
  </diagram>
</mxfile>
